HIERARCHY
ROOT joint_Root
{
	OFFSET 0.0 0.0 0.0
	CHANNELS 6 Xposition Yposition Zposition Zrotation Xrotation Yrotation 
	JOINT Hips
	{
		OFFSET -17.1583 93.1646 452.98
		CHANNELS 6 Xposition Yposition Zposition Zrotation Xrotation Yrotation 
		JOINT Spine
		{
			OFFSET 15.7357 0.0 0.0
			CHANNELS 6 Xposition Yposition Zposition Zrotation Xrotation Yrotation 
			JOINT Chest
			{
				OFFSET 8.98455 -0.406207 0.0
				CHANNELS 6 Xposition Yposition Zposition Zrotation Xrotation Yrotation 
				JOINT Neck
				{
					OFFSET 16.3773 0.0 0.0
					CHANNELS 6 Xposition Yposition Zposition Zrotation Xrotation Yrotation 
					JOINT Head
					{
						OFFSET 6.45672 0.0 0.0
						CHANNELS 6 Xposition Yposition Zposition Zrotation Xrotation Yrotation 
						End Site
						{
							OFFSET 0.0 0.0 0.0
						}
					}
				}
				JOINT Shoulder_L
				{
					OFFSET 12.9942 -0.242716 4.98039
					CHANNELS 6 Xposition Yposition Zposition Zrotation Xrotation Yrotation 
					JOINT UpperArm_L
					{
						OFFSET 5.34809 0.0 0.0
						CHANNELS 6 Xposition Yposition Zposition Zrotation Xrotation Yrotation 
						JOINT LowerArm_L
						{
							OFFSET 24.3286 1.87007e-05 0.0
							CHANNELS 6 Xposition Yposition Zposition Zrotation Xrotation Yrotation 
							JOINT Hand_L
							{
								OFFSET 22.2916 0.0 0.0
								CHANNELS 6 Xposition Yposition Zposition Zrotation Xrotation Yrotation 
								End Site
								{
									OFFSET 0.0 0.0 0.0
								}
							}
						}
					}
				}
				JOINT Shoulder_R
				{
					OFFSET 12.9945 -0.242716 -4.98039
					CHANNELS 6 Xposition Yposition Zposition Zrotation Xrotation Yrotation 
					JOINT UpperArm_R
					{
						OFFSET -5.34813 0.0 0.0
						CHANNELS 6 Xposition Yposition Zposition Zrotation Xrotation Yrotation 
						JOINT LowerArm_R
						{
							OFFSET -24.3289 0.000322201 0.0
							CHANNELS 6 Xposition Yposition Zposition Zrotation Xrotation Yrotation 
							JOINT Hand_R
							{
								OFFSET -22.2915 -0.000108084 0.0
								CHANNELS 6 Xposition Yposition Zposition Zrotation Xrotation Yrotation 
								End Site
								{
									OFFSET 0.0 0.0 0.0
								}
							}
						}
					}
				}
			}
		}
		JOINT UpperLeg_L
		{
			OFFSET -2.19248 -6.46944 0.0
			CHANNELS 6 Xposition Yposition Zposition Zrotation Xrotation Yrotation 
			JOINT LowerLeg_L
			{
				OFFSET 39.0811 0.0 -1.23785e-05
				CHANNELS 6 Xposition Yposition Zposition Zrotation Xrotation Yrotation 
				JOINT Foot_L
				{
					OFFSET 40.9854 0.0 -1.26872e-05
					CHANNELS 6 Xposition Yposition Zposition Zrotation Xrotation Yrotation 
					JOINT Toes_L
					{
						OFFSET 11.7543 0.0 0.0
						CHANNELS 6 Xposition Yposition Zposition Zrotation Xrotation Yrotation 
						End Site
						{
							OFFSET 0.0 0.0 0.0
						}
					}
				}
			}
		}
		JOINT UpperLeg_R
		{
			OFFSET -2.19251 6.46944 0.0
			CHANNELS 6 Xposition Yposition Zposition Zrotation Xrotation Yrotation 
			JOINT LowerLeg_R
			{
				OFFSET -39.0811 -0.00228153 -0.0401928
				CHANNELS 6 Xposition Yposition Zposition Zrotation Xrotation Yrotation 
				JOINT Foot_R
				{
					OFFSET -40.9854 0.0 0.0
					CHANNELS 6 Xposition Yposition Zposition Zrotation Xrotation Yrotation 
					JOINT Toes_R
					{
						OFFSET -11.7543 0.0 0.0
						CHANNELS 6 Xposition Yposition Zposition Zrotation Xrotation Yrotation 
						End Site
						{
							OFFSET 0.0 0.0 0.0
						}
					}
				}
			}
		}
	}
}
MOTION
Frames:	4
Frame Time:	0.0333333
0.000000 0.000000 0.000000 0.000000 0.000000 -0.000000 -1.873290 92.866200 -1.983230 87.115200 -1.085510 2.293410 15.735700 0.000005 -0.000001 84.759400 87.665300 -82.986400 8.984550 -0.406207 -0.000000 -3.104480 -0.594423 3.530500 16.377300 -0.000001 -0.000001 5.832460 3.228460 -1.152390 6.456720 -0.000001 -0.000000 4.134310 3.983570 -4.116900 12.994200 -0.242716 4.980390 -92.776700 8.413590 -71.661300 5.348090 -0.000007 -0.000001 -73.815800 27.012700 2.269590 24.328600 0.000019 0.000005 13.115400 28.017500 -26.381300 22.291600 -0.000001 0.000005 -3.397370 5.033130 6.606700 12.994500 -0.242716 -4.980390 88.657400 4.409290 -73.046000 -5.348130 -0.000001 -0.000004 -71.375600 31.299700 -3.506000 -24.328900 0.000322 -0.000009 3.302680 9.462830 -19.346500 -22.291500 -0.000108 -0.000004 -1.386690 5.287800 0.412095 -2.192480 -6.469440 -0.000000 -175.878000 -0.020521 -3.044870 39.081100 -0.000007 -0.000012 0.201624 -0.523477 21.065200 40.985400 -0.000006 -0.000013 1.573360 8.146870 -71.231400 11.754300 -0.000000 0.000003 0.000426 0.160114 -10.083000 -2.192510 6.469440 -0.000001 -174.404000 6.143220 -178.499000 -39.081100 -0.002282 -0.040193 0.060119 -0.232455 13.728100 -40.985400 0.000008 0.000006 2.036600 3.708500 -69.011600 -11.754300 -0.000006 -0.000006 -0.012814 0.291247 -4.734550
0.000000 0.000000 0.000000 0.000000 0.000000 -0.000000 -1.893080 92.872700 -2.042960 87.111000 -1.038490 2.262580 15.735700 0.000005 -0.000001 84.316100 87.644100 -82.534800 8.984550 -0.406207 -0.000000 -3.065130 -0.634745 3.546340 16.377300 -0.000001 -0.000001 5.775410 3.224410 -1.135650 6.456720 -0.000001 -0.000000 4.060930 3.982360 -4.098320 12.994200 -0.242716 4.980390 -92.774200 8.410700 -71.670800 5.348090 -0.000007 -0.000001 -73.839900 27.006300 2.297390 24.328600 0.000019 0.000005 13.052600 27.940400 -26.325800 22.291600 -0.000001 0.000005 -3.402330 5.034360 6.580060 12.994500 -0.242716 -4.980390 88.648900 4.410490 -72.949100 -5.348130 -0.000001 -0.000004 -71.065700 30.100200 -3.501270 -24.328900 0.000322 -0.000009 3.457080 9.426040 -20.252900 -22.291500 -0.000108 -0.000004 -1.244720 5.286810 0.439156 -2.192480 -6.469440 -0.000000 -175.854000 -0.012984 -3.123890 39.081100 -0.000007 -0.000012 0.200849 -0.521485 21.064500 40.985400 -0.000006 -0.000013 1.556630 8.184690 -71.200400 11.754300 -0.000000 0.000003 0.000433 0.159987 -10.088200 -2.192510 6.469440 -0.000001 -174.369000 6.120910 -178.554000 -39.081100 -0.002282 -0.040193 0.059500 -0.230643 13.686600 -40.985400 0.000008 0.000006 2.058370 3.628700 -68.943300 -11.754300 -0.000006 -0.000006 -0.012770 0.290950 -4.746700
0.000000 0.000000 0.000000 0.000000 0.000000 -0.000000 -1.915120 92.880600 -2.080760 87.088900 -1.013440 2.205030 15.735700 0.000005 -0.000001 84.031500 87.627200 -82.234400 8.984550 -0.406207 -0.000000 -3.033240 -0.662530 3.577150 16.377300 -0.000001 -0.000001 5.721730 3.199520 -1.084930 6.456720 -0.000001 -0.000000 3.937280 3.997830 -4.086730 12.994200 -0.242716 4.980390 -92.769200 8.382470 -71.644100 5.348090 -0.000007 -0.000001 -73.868500 26.951000 2.279530 24.328600 0.000019 0.000005 13.120600 28.049900 -26.366400 22.291600 -0.000001 0.000005 -3.294290 5.030320 6.667860 12.994500 -0.242716 -4.980390 88.655800 4.354400 -72.825900 -5.348130 -0.000001 -0.000004 -70.756800 28.518300 -3.419090 -24.328900 0.000322 -0.000009 3.932610 9.924010 -21.750600 -22.291500 -0.000108 -0.000004 -1.138170 5.284270 0.509237 -2.192480 -6.469440 -0.000000 -175.818000 0.018086 -3.206110 39.081100 -0.000007 -0.000012 0.201550 -0.523596 21.053800 40.985400 -0.000006 -0.000013 1.537920 8.196350 -71.182500 11.754300 -0.000000 0.000003 0.000357 0.161390 -10.031200 -2.192510 6.469440 -0.000001 -174.321000 6.039380 -178.623000 -39.081100 -0.002282 -0.040193 0.057951 -0.224902 13.650200 -40.985400 0.000008 0.000006 1.943240 3.546460 -68.882400 -11.754300 -0.000006 -0.000006 -0.012763 0.290908 -4.748430
0.000000 0.000000 0.000000 0.000000 0.000000 -0.000000 -1.930080 92.888400 -2.126980 87.080200 -0.948675 2.197770 15.735700 0.000005 -0.000001 83.656800 87.590900 -81.847400 8.984550 -0.406207 -0.000000 -2.963860 -0.701449 3.601220 16.377300 -0.000001 -0.000001 5.644880 3.170400 -1.037260 6.456720 -0.000001 -0.000000 3.815450 4.000250 -4.015630 12.994200 -0.242716 4.980390 -92.776900 8.388400 -71.608700 5.348090 -0.000007 -0.000001 -73.849500 26.918000 2.252520 24.328600 0.000019 0.000005 13.113100 27.992700 -26.395800 22.291600 -0.000001 0.000005 -3.329170 5.026590 6.748420 12.994500 -0.242716 -4.980390 88.666800 4.303400 -72.768800 -5.348130 -0.000001 -0.000004 -70.606100 25.461600 -2.980000 -24.328900 0.000322 -0.000009 4.880190 10.942500 -24.220900 -22.291500 -0.000108 -0.000004 -1.508710 5.273060 0.815976 -2.192480 -6.469440 -0.000000 -175.800000 0.104534 -3.243070 39.081100 -0.000007 -0.000012 0.199851 -0.519858 21.028700 40.985400 -0.000006 -0.000013 1.512550 8.169110 -71.116400 11.754300 -0.000000 0.000003 0.000551 0.157766 -10.178300 -2.192510 6.469440 -0.000001 -174.294000 6.035020 -178.650000 -39.081100 -0.002282 -0.040193 0.057023 -0.221782 13.608600 -40.985400 0.000008 0.000006 1.896710 3.492850 -68.811800 -11.754300 -0.000006 -0.000006 -0.012837 0.291406 -4.728020
